<?xml version="1.0" encoding="UTF-8" standalone="no"?>
<!DOCTYPE svg PUBLIC "-//W3C//DTD SVG 1.1//EN"
 "http://www.w3.org/Graphics/SVG/1.1/DTD/svg11.dtd">
<!-- Generated by graphviz version 5.0.0 (20220707.1540)
 -->
<!-- Title: dependencies Pages: 1 -->
<svg width="1858pt" height="174pt"
 viewBox="0.00 0.00 1858.00 173.80" xmlns="http://www.w3.org/2000/svg" xmlns:xlink="http://www.w3.org/1999/xlink">
<g id="graph0" class="graph" transform="scale(1 1) rotate(0) translate(4 169.8)">
<title>dependencies</title>
<polygon fill="white" stroke="transparent" points="-4,4 -4,-169.8 1854,-169.8 1854,4 -4,4"/>
<text text-anchor="middle" x="925" y="-8.2" font-family="sans-serif" font-size="14.00">dependencies</text>
<g id="clust1" class="cluster">
<title>cluster_AppModule</title>
<polygon fill="none" stroke="black" stroke-dasharray="1,5" points="8,-32.8 8,-157.8 1842,-157.8 1842,-32.8 8,-32.8"/>
</g>
<g id="clust6" class="cluster">
<title>cluster_AppModule_providers</title>
<polygon fill="none" stroke="black" points="481,-40.8 481,-92.8 1834,-92.8 1834,-40.8 481,-40.8"/>
</g>
<g id="clust3" class="cluster">
<title>cluster_AppModule_imports</title>
<polygon fill="none" stroke="black" points="16,-40.8 16,-92.8 473,-92.8 473,-40.8 16,-40.8"/>
</g>
<!-- AuthModule -->
<g id="node1" class="node">
<title>AuthModule</title>
<polygon fill="#8dd3c7" stroke="black" points="464.55,-84.8 461.55,-88.8 440.55,-88.8 437.55,-84.8 377.45,-84.8 377.45,-48.8 464.55,-48.8 464.55,-84.8"/>
<text text-anchor="middle" x="421" y="-62.6" font-family="Times,serif" font-size="14.00">AuthModule</text>
</g>
<!-- AppModule -->
<g id="node5" class="node">
<title>AppModule</title>
<polygon fill="#8dd3c7" stroke="black" points="849.66,-149.8 846.66,-153.8 825.66,-153.8 822.66,-149.8 766.34,-149.8 766.34,-113.8 849.66,-113.8 849.66,-149.8"/>
<text text-anchor="middle" x="808" y="-127.6" font-family="Times,serif" font-size="14.00">AppModule</text>
</g>
<!-- AuthModule&#45;&gt;AppModule -->
<g id="edge1" class="edge">
<title>AuthModule&#45;&gt;AppModule</title>
<path fill="none" stroke="black" d="M421,-84.82C421,-102.17 421,-125.8 421,-125.8 421,-125.8 756.22,-125.8 756.22,-125.8"/>
<polygon fill="black" stroke="black" points="756.22,-129.3 766.22,-125.8 756.22,-122.3 756.22,-129.3"/>
</g>
<!-- HearthstoneModule -->
<g id="node2" class="node">
<title>HearthstoneModule</title>
<polygon fill="#8dd3c7" stroke="black" points="359.69,-84.8 356.69,-88.8 335.69,-88.8 332.69,-84.8 232.31,-84.8 232.31,-48.8 359.69,-48.8 359.69,-84.8"/>
<text text-anchor="middle" x="296" y="-62.6" font-family="Times,serif" font-size="14.00">HearthstoneModule</text>
</g>
<!-- HearthstoneModule&#45;&gt;AppModule -->
<g id="edge2" class="edge">
<title>HearthstoneModule&#45;&gt;AppModule</title>
<path fill="none" stroke="black" d="M296,-84.91C296,-104.14 296,-131.8 296,-131.8 296,-131.8 756.1,-131.8 756.1,-131.8"/>
<polygon fill="black" stroke="black" points="756.1,-135.3 766.1,-131.8 756.1,-128.3 756.1,-135.3"/>
</g>
<!-- MailModule -->
<g id="node3" class="node">
<title>MailModule</title>
<polygon fill="#8dd3c7" stroke="black" points="213.99,-84.8 210.99,-88.8 189.99,-88.8 186.99,-84.8 128.01,-84.8 128.01,-48.8 213.99,-48.8 213.99,-84.8"/>
<text text-anchor="middle" x="171" y="-62.6" font-family="Times,serif" font-size="14.00">MailModule</text>
</g>
<!-- MailModule&#45;&gt;AppModule -->
<g id="edge3" class="edge">
<title>MailModule&#45;&gt;AppModule</title>
<path fill="none" stroke="black" d="M171,-85.08C171,-106.12 171,-137.8 171,-137.8 171,-137.8 756.2,-137.8 756.2,-137.8"/>
<polygon fill="black" stroke="black" points="756.2,-141.3 766.2,-137.8 756.2,-134.3 756.2,-141.3"/>
</g>
<!-- UserModule -->
<g id="node4" class="node">
<title>UserModule</title>
<polygon fill="#8dd3c7" stroke="black" points="109.99,-84.8 106.99,-88.8 85.99,-88.8 82.99,-84.8 24.01,-84.8 24.01,-48.8 109.99,-48.8 109.99,-84.8"/>
<text text-anchor="middle" x="67" y="-62.6" font-family="Times,serif" font-size="14.00">UserModule</text>
</g>
<!-- UserModule&#45;&gt;AppModule -->
<g id="edge4" class="edge">
<title>UserModule&#45;&gt;AppModule</title>
<path fill="none" stroke="black" d="M67,-84.89C67,-107.93 67,-144.8 67,-144.8 67,-144.8 756.31,-144.8 756.31,-144.8"/>
<polygon fill="black" stroke="black" points="756.31,-148.3 766.31,-144.8 756.31,-141.3 756.31,-148.3"/>
</g>
<!-- AppService -->
<g id="node6" class="node">
<title>AppService</title>
<ellipse fill="#fdb462" stroke="black" cx="1769" cy="-66.8" rx="56.75" ry="18"/>
<text text-anchor="middle" x="1769" y="-62.6" font-family="Times,serif" font-size="14.00">AppService</text>
</g>
<!-- AppService&#45;&gt;AppModule -->
<g id="edge5" class="edge">
<title>AppService&#45;&gt;AppModule</title>
<path fill="none" stroke="black" d="M1769,-84.89C1769,-107.93 1769,-144.8 1769,-144.8 1769,-144.8 859.91,-144.8 859.91,-144.8"/>
<polygon fill="black" stroke="black" points="859.91,-141.3 849.91,-144.8 859.91,-148.3 859.91,-141.3"/>
</g>
<!-- AuthService -->
<g id="node7" class="node">
<title>AuthService</title>
<ellipse fill="#fdb462" stroke="black" cx="1635" cy="-66.8" rx="59.11" ry="18"/>
<text text-anchor="middle" x="1635" y="-62.6" font-family="Times,serif" font-size="14.00">AuthService</text>
</g>
<!-- AuthService&#45;&gt;AppModule -->
<g id="edge6" class="edge">
<title>AuthService&#45;&gt;AppModule</title>
<path fill="none" stroke="black" d="M1635,-85.08C1635,-106.12 1635,-137.8 1635,-137.8 1635,-137.8 859.86,-137.8 859.86,-137.8"/>
<polygon fill="black" stroke="black" points="859.86,-134.3 849.86,-137.8 859.86,-141.3 859.86,-134.3"/>
</g>
<!-- CreateCardCommand -->
<g id="node8" class="node">
<title>CreateCardCommand</title>
<ellipse fill="#fdb462" stroke="black" cx="1462" cy="-66.8" rx="95.49" ry="18"/>
<text text-anchor="middle" x="1462" y="-62.6" font-family="Times,serif" font-size="14.00">CreateCardCommand</text>
</g>
<!-- CreateCardCommand&#45;&gt;AppModule -->
<g id="edge7" class="edge">
<title>CreateCardCommand&#45;&gt;AppModule</title>
<path fill="none" stroke="black" d="M1462,-84.91C1462,-104.14 1462,-131.8 1462,-131.8 1462,-131.8 859.91,-131.8 859.91,-131.8"/>
<polygon fill="black" stroke="black" points="859.91,-128.3 849.91,-131.8 859.91,-135.3 859.91,-128.3"/>
</g>
<!-- HearthstoneDataCommand -->
<g id="node9" class="node">
<title>HearthstoneDataCommand</title>
<ellipse fill="#fdb462" stroke="black" cx="1233" cy="-66.8" rx="116.32" ry="18"/>
<text text-anchor="middle" x="1233" y="-62.6" font-family="Times,serif" font-size="14.00">HearthstoneDataCommand</text>
</g>
<!-- HearthstoneDataCommand&#45;&gt;AppModule -->
<g id="edge8" class="edge">
<title>HearthstoneDataCommand&#45;&gt;AppModule</title>
<path fill="none" stroke="black" d="M1233,-84.82C1233,-102.17 1233,-125.8 1233,-125.8 1233,-125.8 859.91,-125.8 859.91,-125.8"/>
<polygon fill="black" stroke="black" points="859.91,-122.3 849.91,-125.8 859.91,-129.3 859.91,-122.3"/>
</g>
<!-- MailService -->
<g id="node10" class="node">
<title>MailService</title>
<ellipse fill="#fdb462" stroke="black" cx="1041" cy="-66.8" rx="58.46" ry="18"/>
<text text-anchor="middle" x="1041" y="-62.6" font-family="Times,serif" font-size="14.00">MailService</text>
</g>
<!-- MailService&#45;&gt;AppModule -->
<g id="edge9" class="edge">
<title>MailService&#45;&gt;AppModule</title>
<path fill="none" stroke="black" d="M1041,-85.04C1041,-100.37 1041,-119.8 1041,-119.8 1041,-119.8 859.92,-119.8 859.92,-119.8"/>
<polygon fill="black" stroke="black" points="859.92,-116.3 849.92,-119.8 859.92,-123.3 859.92,-116.3"/>
</g>
<!-- PrismaService -->
<g id="node11" class="node">
<title>PrismaService</title>
<ellipse fill="#fdb462" stroke="black" cx="898" cy="-66.8" rx="66.64" ry="18"/>
<text text-anchor="middle" x="898" y="-62.6" font-family="Times,serif" font-size="14.00">PrismaService</text>
</g>
<!-- PrismaService&#45;&gt;AppModule -->
<g id="edge10" class="edge">
<title>PrismaService&#45;&gt;AppModule</title>
<path fill="none" stroke="black" d="M840.51,-76.11C840.51,-76.11 840.51,-103.65 840.51,-103.65"/>
<polygon fill="black" stroke="black" points="837.01,-103.65 840.51,-113.65 844.01,-103.65 837.01,-103.65"/>
</g>
<!-- UserCreateCommand -->
<g id="node12" class="node">
<title>UserCreateCommand</title>
<ellipse fill="#fdb462" stroke="black" cx="718" cy="-66.8" rx="94.91" ry="18"/>
<text text-anchor="middle" x="718" y="-62.6" font-family="Times,serif" font-size="14.00">UserCreateCommand</text>
</g>
<!-- UserCreateCommand&#45;&gt;AppModule -->
<g id="edge11" class="edge">
<title>UserCreateCommand&#45;&gt;AppModule</title>
<path fill="none" stroke="black" d="M789.44,-78.72C789.44,-78.72 789.44,-103.57 789.44,-103.57"/>
<polygon fill="black" stroke="black" points="785.94,-103.57 789.44,-113.57 792.94,-103.57 785.94,-103.57"/>
</g>
<!-- UserService -->
<g id="node13" class="node">
<title>UserService</title>
<ellipse fill="#fdb462" stroke="black" cx="547" cy="-66.8" rx="58.46" ry="18"/>
<text text-anchor="middle" x="547" y="-62.6" font-family="Times,serif" font-size="14.00">UserService</text>
</g>
<!-- UserService&#45;&gt;AppModule -->
<g id="edge12" class="edge">
<title>UserService&#45;&gt;AppModule</title>
<path fill="none" stroke="black" d="M547,-85.04C547,-100.37 547,-119.8 547,-119.8 547,-119.8 756.07,-119.8 756.07,-119.8"/>
<polygon fill="black" stroke="black" points="756.07,-123.3 766.07,-119.8 756.07,-116.3 756.07,-123.3"/>
</g>
</g>
</svg>
