<?xml version="1.0" encoding="UTF-8" standalone="no"?>
<!DOCTYPE svg PUBLIC "-//W3C//DTD SVG 1.1//EN"
 "http://www.w3.org/Graphics/SVG/1.1/DTD/svg11.dtd">
<!-- Generated by graphviz version 5.0.0 (20220707.1540)
 -->
<!-- Title: dependencies Pages: 1 -->
<svg width="381pt" height="174pt"
 viewBox="0.00 0.00 381.00 173.80" xmlns="http://www.w3.org/2000/svg" xmlns:xlink="http://www.w3.org/1999/xlink">
<g id="graph0" class="graph" transform="scale(1 1) rotate(0) translate(4 169.8)">
<title>dependencies</title>
<polygon fill="white" stroke="transparent" points="-4,4 -4,-169.8 377,-169.8 377,4 -4,4"/>
<text text-anchor="middle" x="186.5" y="-8.2" font-family="sans-serif" font-size="14.00">dependencies</text>
<g id="clust1" class="cluster">
<title>cluster_HearthstoneModule</title>
<polygon fill="none" stroke="black" stroke-dasharray="1,5" points="8,-32.8 8,-157.8 365,-157.8 365,-32.8 8,-32.8"/>
</g>
<g id="clust6" class="cluster">
<title>cluster_HearthstoneModule_providers</title>
<polygon fill="none" stroke="black" points="16,-40.8 16,-92.8 357,-92.8 357,-40.8 16,-40.8"/>
</g>
<!-- HearthstoneService -->
<g id="node1" class="node">
<title>HearthstoneService</title>
<ellipse fill="#fdb462" stroke="black" cx="262" cy="-66.8" rx="86.8" ry="18"/>
<text text-anchor="middle" x="262" y="-62.6" font-family="Times,serif" font-size="14.00">HearthstoneService</text>
</g>
<!-- HearthstoneModule -->
<g id="node3" class="node">
<title>HearthstoneModule</title>
<polygon fill="#8dd3c7" stroke="black" points="239.69,-149.8 236.69,-153.8 215.69,-153.8 212.69,-149.8 112.31,-149.8 112.31,-113.8 239.69,-113.8 239.69,-149.8"/>
<text text-anchor="middle" x="176" y="-127.6" font-family="Times,serif" font-size="14.00">HearthstoneModule</text>
</g>
<!-- HearthstoneService&#45;&gt;HearthstoneModule -->
<g id="edge1" class="edge">
<title>HearthstoneService&#45;&gt;HearthstoneModule</title>
<path fill="none" stroke="black" d="M207.47,-80.9C207.47,-80.9 207.47,-103.52 207.47,-103.52"/>
<polygon fill="black" stroke="black" points="203.97,-103.52 207.47,-113.52 210.97,-103.52 203.97,-103.52"/>
</g>
<!-- PrismaService -->
<g id="node2" class="node">
<title>PrismaService</title>
<ellipse fill="#fdb462" stroke="black" cx="91" cy="-66.8" rx="66.64" ry="18"/>
<text text-anchor="middle" x="91" y="-62.6" font-family="Times,serif" font-size="14.00">PrismaService</text>
</g>
<!-- PrismaService&#45;&gt;HearthstoneModule -->
<g id="edge2" class="edge">
<title>PrismaService&#45;&gt;HearthstoneModule</title>
<path fill="none" stroke="black" d="M135.11,-80.58C135.11,-80.58 135.11,-103.35 135.11,-103.35"/>
<polygon fill="black" stroke="black" points="131.61,-103.35 135.11,-113.35 138.61,-103.35 131.61,-103.35"/>
</g>
</g>
</svg>
