<?xml version="1.0" encoding="UTF-8" standalone="no"?>
<!DOCTYPE svg PUBLIC "-//W3C//DTD SVG 1.1//EN"
 "http://www.w3.org/Graphics/SVG/1.1/DTD/svg11.dtd">
<!-- Generated by graphviz version 5.0.0 (20220707.1540)
 -->
<!-- Title: dependencies Pages: 1 -->
<svg width="836pt" height="247pt"
 viewBox="0.00 0.00 836.00 246.80" xmlns="http://www.w3.org/2000/svg" xmlns:xlink="http://www.w3.org/1999/xlink">
<g id="graph0" class="graph" transform="scale(1 1) rotate(0) translate(4 242.8)">
<title>dependencies</title>
<polygon fill="white" stroke="transparent" points="-4,4 -4,-242.8 832,-242.8 832,4 -4,4"/>
<text text-anchor="middle" x="414" y="-8.2" font-family="sans-serif" font-size="14.00">dependencies</text>
<g id="clust1" class="cluster">
<title>cluster_AuthModule</title>
<polygon fill="none" stroke="black" stroke-dasharray="1,5" points="8,-32.8 8,-230.8 820,-230.8 820,-32.8 8,-32.8"/>
</g>
<g id="clust3" class="cluster">
<title>cluster_AuthModule_imports</title>
<polygon fill="none" stroke="black" points="710,-40.8 710,-92.8 812,-92.8 812,-40.8 710,-40.8"/>
</g>
<g id="clust4" class="cluster">
<title>cluster_AuthModule_exports</title>
<polygon fill="none" stroke="black" points="381,-170.8 381,-222.8 487,-222.8 487,-170.8 381,-170.8"/>
</g>
<g id="clust6" class="cluster">
<title>cluster_AuthModule_providers</title>
<polygon fill="none" stroke="black" points="16,-40.8 16,-92.8 702,-92.8 702,-40.8 16,-40.8"/>
</g>
<!-- UserModule -->
<g id="node1" class="node">
<title>UserModule</title>
<polygon fill="#8dd3c7" stroke="black" points="803.99,-84.8 800.99,-88.8 779.99,-88.8 776.99,-84.8 718.01,-84.8 718.01,-48.8 803.99,-48.8 803.99,-84.8"/>
<text text-anchor="middle" x="761" y="-62.6" font-family="Times,serif" font-size="14.00">UserModule</text>
</g>
<!-- AuthModule -->
<g id="node2" class="node">
<title>AuthModule</title>
<polygon fill="#8dd3c7" stroke="black" points="477.55,-149.8 474.55,-153.8 453.55,-153.8 450.55,-149.8 390.45,-149.8 390.45,-113.8 477.55,-113.8 477.55,-149.8"/>
<text text-anchor="middle" x="434" y="-127.6" font-family="Times,serif" font-size="14.00">AuthModule</text>
</g>
<!-- UserModule&#45;&gt;AuthModule -->
<g id="edge1" class="edge">
<title>UserModule&#45;&gt;AuthModule</title>
<path fill="none" stroke="black" d="M761,-85.08C761,-106.12 761,-137.8 761,-137.8 761,-137.8 487.76,-137.8 487.76,-137.8"/>
<polygon fill="black" stroke="black" points="487.76,-134.3 477.76,-137.8 487.76,-141.3 487.76,-134.3"/>
</g>
<!-- AuthService  -->
<g id="node3" class="node">
<title>AuthService </title>
<polygon fill="#fb8072" stroke="black" points="478.98,-214.8 389.02,-214.8 389.02,-178.8 478.98,-178.8 478.98,-214.8"/>
<text text-anchor="middle" x="434" y="-192.6" font-family="Times,serif" font-size="14.00">AuthService </text>
</g>
<!-- AuthModule&#45;&gt;AuthService  -->
<g id="edge2" class="edge">
<title>AuthModule&#45;&gt;AuthService </title>
<path fill="none" stroke="black" stroke-dasharray="5,2" d="M434,-149.91C434,-149.91 434,-168.79 434,-168.79"/>
<polygon fill="black" stroke="black" points="430.5,-168.79 434,-178.79 437.5,-168.79 430.5,-168.79"/>
</g>
<!-- AuthService -->
<g id="node4" class="node">
<title>AuthService</title>
<ellipse fill="#fdb462" stroke="black" cx="635" cy="-66.8" rx="59.11" ry="18"/>
<text text-anchor="middle" x="635" y="-62.6" font-family="Times,serif" font-size="14.00">AuthService</text>
</g>
<!-- AuthService&#45;&gt;AuthModule -->
<g id="edge3" class="edge">
<title>AuthService&#45;&gt;AuthModule</title>
<path fill="none" stroke="black" d="M635,-84.82C635,-102.17 635,-125.8 635,-125.8 635,-125.8 487.61,-125.8 487.61,-125.8"/>
<polygon fill="black" stroke="black" points="487.61,-122.3 477.61,-125.8 487.61,-129.3 487.61,-122.3"/>
</g>
<!-- JwtStrategy -->
<g id="node5" class="node">
<title>JwtStrategy</title>
<ellipse fill="#fdb462" stroke="black" cx="501" cy="-66.8" rx="56.77" ry="18"/>
<text text-anchor="middle" x="501" y="-62.6" font-family="Times,serif" font-size="14.00">JwtStrategy</text>
</g>
<!-- JwtStrategy&#45;&gt;AuthModule -->
<g id="edge4" class="edge">
<title>JwtStrategy&#45;&gt;AuthModule</title>
<path fill="none" stroke="black" d="M461.07,-79.64C461.07,-79.64 461.07,-103.32 461.07,-103.32"/>
<polygon fill="black" stroke="black" points="457.57,-103.32 461.07,-113.32 464.57,-103.32 457.57,-103.32"/>
</g>
<!-- MailService -->
<g id="node6" class="node">
<title>MailService</title>
<ellipse fill="#fdb462" stroke="black" cx="368" cy="-66.8" rx="58.46" ry="18"/>
<text text-anchor="middle" x="368" y="-62.6" font-family="Times,serif" font-size="14.00">MailService</text>
</g>
<!-- MailService&#45;&gt;AuthModule -->
<g id="edge5" class="edge">
<title>MailService&#45;&gt;AuthModule</title>
<path fill="none" stroke="black" d="M408.23,-79.95C408.23,-79.95 408.23,-103.49 408.23,-103.49"/>
<polygon fill="black" stroke="black" points="404.73,-103.49 408.23,-113.49 411.73,-103.49 404.73,-103.49"/>
</g>
<!-- PrismaService -->
<g id="node7" class="node">
<title>PrismaService</title>
<ellipse fill="#fdb462" stroke="black" cx="225" cy="-66.8" rx="66.64" ry="18"/>
<text text-anchor="middle" x="225" y="-62.6" font-family="Times,serif" font-size="14.00">PrismaService</text>
</g>
<!-- PrismaService&#45;&gt;AuthModule -->
<g id="edge6" class="edge">
<title>PrismaService&#45;&gt;AuthModule</title>
<path fill="none" stroke="black" d="M225,-84.82C225,-102.17 225,-125.8 225,-125.8 225,-125.8 380.44,-125.8 380.44,-125.8"/>
<polygon fill="black" stroke="black" points="380.44,-129.3 390.44,-125.8 380.44,-122.3 380.44,-129.3"/>
</g>
<!-- UserService -->
<g id="node8" class="node">
<title>UserService</title>
<ellipse fill="#fdb462" stroke="black" cx="82" cy="-66.8" rx="58.46" ry="18"/>
<text text-anchor="middle" x="82" y="-62.6" font-family="Times,serif" font-size="14.00">UserService</text>
</g>
<!-- UserService&#45;&gt;AuthModule -->
<g id="edge7" class="edge">
<title>UserService&#45;&gt;AuthModule</title>
<path fill="none" stroke="black" d="M82,-85.08C82,-106.12 82,-137.8 82,-137.8 82,-137.8 380.13,-137.8 380.13,-137.8"/>
<polygon fill="black" stroke="black" points="380.13,-141.3 390.13,-137.8 380.13,-134.3 380.13,-141.3"/>
</g>
</g>
</svg>
