<svg id="visual" viewBox="0 0 960 540" width="960" height="540" xmlns="http://www.w3.org/2000/svg" xmlns:xlink="http://www.w3.org/1999/xlink" version="1.1"><rect x="0" y="0" width="960" height="540" fill="#25262b"></rect><defs><linearGradient id="grad1_0" x1="43.8%" y1="0%" x2="100%" y2="100%"><stop offset="14.444444444444446%" stop-color="#715df2" stop-opacity="1"></stop><stop offset="85.55555555555554%" stop-color="#715df2" stop-opacity="1"></stop></linearGradient></defs><defs><linearGradient id="grad1_1" x1="43.8%" y1="0%" x2="100%" y2="100%"><stop offset="14.444444444444446%" stop-color="#715df2" stop-opacity="1"></stop><stop offset="85.55555555555554%" stop-color="#3a468d" stop-opacity="1"></stop></linearGradient></defs><defs><linearGradient id="grad1_2" x1="43.8%" y1="0%" x2="100%" y2="100%"><stop offset="14.444444444444446%" stop-color="#25262b" stop-opacity="1"></stop><stop offset="85.55555555555554%" stop-color="#3a468d" stop-opacity="1"></stop></linearGradient></defs><defs><linearGradient id="grad2_0" x1="0%" y1="0%" x2="56.3%" y2="100%"><stop offset="14.444444444444446%" stop-color="#715df2" stop-opacity="1"></stop><stop offset="85.55555555555554%" stop-color="#715df2" stop-opacity="1"></stop></linearGradient></defs><defs><linearGradient id="grad2_1" x1="0%" y1="0%" x2="56.3%" y2="100%"><stop offset="14.444444444444446%" stop-color="#3a468d" stop-opacity="1"></stop><stop offset="85.55555555555554%" stop-color="#715df2" stop-opacity="1"></stop></linearGradient></defs><defs><linearGradient id="grad2_2" x1="0%" y1="0%" x2="56.3%" y2="100%"><stop offset="14.444444444444446%" stop-color="#3a468d" stop-opacity="1"></stop><stop offset="85.55555555555554%" stop-color="#25262b" stop-opacity="1"></stop></linearGradient></defs><g transform="translate(960, 0)"><path d="M0 459C-54.7 444.9 -109.3 430.8 -171.1 413C-232.8 395.1 -301.7 373.6 -324.6 324.6C-347.4 275.6 -324.3 199.1 -339.1 140.4C-353.8 81.8 -406.4 40.9 -459 0L0 0Z" fill="#2e365b"></path><path d="M0 306C-36.4 296.6 -72.9 287.2 -114 275.3C-155.2 263.4 -201.1 249 -216.4 216.4C-231.6 183.7 -216.2 132.7 -226 93.6C-235.9 54.5 -270.9 27.3 -306 0L0 0Z" fill="#4f53c0"></path><path d="M0 153C-18.2 148.3 -36.4 143.6 -57 137.7C-77.6 131.7 -100.6 124.5 -108.2 108.2C-115.8 91.9 -108.1 66.4 -113 46.8C-117.9 27.3 -135.5 13.6 -153 0L0 0Z" fill="#715df2"></path></g><g transform="translate(0, 540)"><path d="M0 -459C57.5 -450.2 115.1 -441.4 174.9 -422.2C234.7 -403 296.9 -373.5 324.6 -324.6C352.3 -275.6 345.5 -207.3 362.2 -150C378.8 -92.7 418.9 -46.3 459 0L0 0Z" fill="#2e365b"></path><path d="M0 -306C38.4 -300.1 76.7 -294.3 116.6 -281.5C156.5 -268.7 197.9 -249 216.4 -216.4C234.8 -183.8 230.3 -138.2 241.4 -100C252.5 -61.8 279.3 -30.9 306 0L0 0Z" fill="#4f53c0"></path><path d="M0 -153C19.2 -150.1 38.4 -147.1 58.3 -140.7C78.2 -134.3 99 -124.5 108.2 -108.2C117.4 -91.9 115.2 -69.1 120.7 -50C126.3 -30.9 139.6 -15.4 153 0L0 0Z" fill="#715df2"></path></g></svg>